HIERARCHY
ROOT mixamorig:Hips
{
	OFFSET -0.000008 104.274872 1.554316
	CHANNELS 6 Xposition Yposition Zposition Xrotation Yrotation Zrotation
	JOINT mixamorig:Spine
	{
		OFFSET -0.000005 10.181595 0.131519
		CHANNELS 6 Xposition Yposition Zposition Xrotation Yrotation Zrotation
		JOINT mixamorig:Spine1
		{
			OFFSET -0.000000 9.893959 -1.470707
			CHANNELS 6 Xposition Yposition Zposition Xrotation Yrotation Zrotation
			JOINT mixamorig:Spine2
			{
				OFFSET -0.000000 9.220757 -1.370641
				CHANNELS 6 Xposition Yposition Zposition Xrotation Yrotation Zrotation
				JOINT mixamorig:Neck
				{
					OFFSET 0.000001 16.740417 -2.049036
					CHANNELS 6 Xposition Yposition Zposition Xrotation Yrotation Zrotation
					JOINT mixamorig:Head
					{
						OFFSET 0.000000 9.617874 1.685006
						CHANNELS 6 Xposition Yposition Zposition Xrotation Yrotation Zrotation
						JOINT mixamorig:HeadTop_End
						{
							OFFSET 0.000002 22.037354 7.501101
							CHANNELS 6 Xposition Yposition Zposition Xrotation Yrotation Zrotation
							End Site
							{
								OFFSET 0.000168 2310.654297 -282.823242
							}
						}
					}
				}
				JOINT mixamorig:RightShoulder
				{
					OFFSET -4.569970 11.014908 -2.160885
					CHANNELS 6 Xposition Yposition Zposition Xrotation Yrotation Zrotation
					JOINT mixamorig:RightArm
					{
						OFFSET -10.592851 -0.524811 -2.232101
						CHANNELS 6 Xposition Yposition Zposition Xrotation Yrotation Zrotation
						JOINT mixamorig:RightForeArm
						{
							OFFSET -27.841511 0.000031 -0.000004
							CHANNELS 6 Xposition Yposition Zposition Xrotation Yrotation Zrotation
							JOINT mixamorig:RightHand
							{
								OFFSET -28.328831 -0.000015 0.000015
								CHANNELS 6 Xposition Yposition Zposition Xrotation Yrotation Zrotation
								JOINT mixamorig:RightHandThumb1
								{
									OFFSET -2.464806 -1.573990 2.681852
									CHANNELS 6 Xposition Yposition Zposition Xrotation Yrotation Zrotation
									JOINT mixamorig:RightHandThumb2
									{
										OFFSET -3.215179 -1.872803 1.924282
										CHANNELS 6 Xposition Yposition Zposition Xrotation Yrotation Zrotation
										JOINT mixamorig:RightHandThumb3
										{
											OFFSET -2.654831 -1.527969 1.512609
											CHANNELS 6 Xposition Yposition Zposition Xrotation Yrotation Zrotation
											JOINT mixamorig:RightHandThumb4
											{
												OFFSET -2.018814 -1.152008 1.108052
												CHANNELS 6 Xposition Yposition Zposition Xrotation Yrotation Zrotation
												End Site
												{
													OFFSET -188.809540 -114.533607 132.431396
												}
											}
										}
									}
								}
								JOINT mixamorig:RightHandIndex1
								{
									OFFSET -9.108284 -0.517868 2.259835
									CHANNELS 6 Xposition Yposition Zposition Xrotation Yrotation Zrotation
									JOINT mixamorig:RightHandIndex2
									{
										OFFSET -3.699989 0.000000 0.001215
										CHANNELS 6 Xposition Yposition Zposition Xrotation Yrotation Zrotation
										JOINT mixamorig:RightHandIndex3
										{
											OFFSET -2.850006 0.000031 -0.000522
											CHANNELS 6 Xposition Yposition Zposition Xrotation Yrotation Zrotation
											JOINT mixamorig:RightHandIndex4
											{
												OFFSET -2.772186 -0.000015 -0.000020
												CHANNELS 6 Xposition Yposition Zposition Xrotation Yrotation Zrotation
												End Site
												{
													OFFSET -277.218445 0.000000 -0.050231
												}
											}
										}
									}
								}
								JOINT mixamorig:RightHandMiddle1
								{
									OFFSET -9.532516 -0.000031 -0.000023
									CHANNELS 6 Xposition Yposition Zposition Xrotation Yrotation Zrotation
									JOINT mixamorig:RightHandMiddle2
									{
										OFFSET -3.700005 -0.000015 0.003713
										CHANNELS 6 Xposition Yposition Zposition Xrotation Yrotation Zrotation
										JOINT mixamorig:RightHandMiddle3
										{
											OFFSET -2.949974 0.000015 -0.002054
											CHANNELS 6 Xposition Yposition Zposition Xrotation Yrotation Zrotation
											JOINT mixamorig:RightHandMiddle4
											{
												OFFSET -2.946640 0.000000 -0.000156
												CHANNELS 6 Xposition Yposition Zposition Xrotation Yrotation Zrotation
												End Site
												{
													OFFSET -294.664337 0.000000 -0.113670
												}
											}
										}
									}
								}
								JOINT mixamorig:RightHandRing1
								{
									OFFSET -9.103600 -0.043076 -1.865134
									CHANNELS 6 Xposition Yposition Zposition Xrotation Yrotation Zrotation
									JOINT mixamorig:RightHandRing2
									{
										OFFSET -3.379288 0.000000 -0.001055
										CHANNELS 6 Xposition Yposition Zposition Xrotation Yrotation Zrotation
										JOINT mixamorig:RightHandRing3
										{
											OFFSET -2.889687 -0.000015 0.000379
											CHANNELS 6 Xposition Yposition Zposition Xrotation Yrotation Zrotation
											JOINT mixamorig:RightHandRing4
											{
												OFFSET -2.638809 -0.000015 0.000941
												CHANNELS 6 Xposition Yposition Zposition Xrotation Yrotation Zrotation
												End Site
												{
													OFFSET -263.880371 0.000000 0.516020
												}
											}
										}
									}
								}
								JOINT mixamorig:RightHandPinky1
								{
									OFFSET -8.076683 -0.486710 -3.806280
									CHANNELS 6 Xposition Yposition Zposition Xrotation Yrotation Zrotation
									JOINT mixamorig:RightHandPinky2
									{
										OFFSET -3.600014 -0.000015 -0.003747
										CHANNELS 6 Xposition Yposition Zposition Xrotation Yrotation Zrotation
										JOINT mixamorig:RightHandPinky3
										{
											OFFSET -2.099983 0.000000 -0.005739
											CHANNELS 6 Xposition Yposition Zposition Xrotation Yrotation Zrotation
											JOINT mixamorig:RightHandPinky4
											{
												OFFSET -2.115768 -0.000031 -0.003680
												CHANNELS 6 Xposition Yposition Zposition Xrotation Yrotation Zrotation
												End Site
												{
													OFFSET -211.577087 0.000000 -0.350686
												}
											}
										}
									}
								}
							}
						}
					}
				}
				JOINT mixamorig:LeftShoulder
				{
					OFFSET 4.570447 11.014725 -2.160855
					CHANNELS 6 Xposition Yposition Zposition Xrotation Yrotation Zrotation
					JOINT mixamorig:LeftArm
					{
						OFFSET 10.592371 -0.524597 -2.232119
						CHANNELS 6 Xposition Yposition Zposition Xrotation Yrotation Zrotation
						JOINT mixamorig:LeftForeArm
						{
							OFFSET 27.841532 -0.000031 0.000026
							CHANNELS 6 Xposition Yposition Zposition Xrotation Yrotation Zrotation
							JOINT mixamorig:LeftHand
							{
								OFFSET 28.328846 -0.000061 0.000022
								CHANNELS 6 Xposition Yposition Zposition Xrotation Yrotation Zrotation
								JOINT mixamorig:LeftHandThumb1
								{
									OFFSET 2.466141 -1.576172 2.681732
									CHANNELS 6 Xposition Yposition Zposition Xrotation Yrotation Zrotation
									JOINT mixamorig:LeftHandThumb2
									{
										OFFSET 3.217812 -1.872070 1.916482
										CHANNELS 6 Xposition Yposition Zposition Xrotation Yrotation Zrotation
										JOINT mixamorig:LeftHandThumb3
										{
											OFFSET 2.656029 -1.528778 1.514513
											CHANNELS 6 Xposition Yposition Zposition Xrotation Yrotation Zrotation
											JOINT mixamorig:LeftHandThumb4
											{
												OFFSET 2.020889 -1.154053 1.115139
												CHANNELS 6 Xposition Yposition Zposition Xrotation Yrotation Zrotation
												End Site
												{
													OFFSET 190.885437 -115.081749 130.048782
												}
											}
										}
									}
								}
								JOINT mixamorig:LeftHandIndex1
								{
									OFFSET 9.109314 -0.518021 2.259871
									CHANNELS 6 Xposition Yposition Zposition Xrotation Yrotation Zrotation
									JOINT mixamorig:LeftHandIndex2
									{
										OFFSET 3.699989 0.000000 -0.000322
										CHANNELS 6 Xposition Yposition Zposition Xrotation Yrotation Zrotation
										JOINT mixamorig:LeftHandIndex3
										{
											OFFSET 2.850006 0.000000 0.000352
											CHANNELS 6 Xposition Yposition Zposition Xrotation Yrotation Zrotation
											JOINT mixamorig:LeftHandIndex4
											{
												OFFSET 2.774864 -0.000031 -0.000027
												CHANNELS 6 Xposition Yposition Zposition Xrotation Yrotation Zrotation
												End Site
												{
													OFFSET 277.486267 0.000000 -0.009857
												}
											}
										}
									}
								}
								JOINT mixamorig:LeftHandMiddle1
								{
									OFFSET 9.533394 0.000061 0.000044
									CHANNELS 6 Xposition Yposition Zposition Xrotation Yrotation Zrotation
									JOINT mixamorig:LeftHandMiddle2
									{
										OFFSET 3.699989 -0.000015 -0.000231
										CHANNELS 6 Xposition Yposition Zposition Xrotation Yrotation Zrotation
										JOINT mixamorig:LeftHandMiddle3
										{
											OFFSET 2.949997 -0.000015 -0.000059
											CHANNELS 6 Xposition Yposition Zposition Xrotation Yrotation Zrotation
											JOINT mixamorig:LeftHandMiddle4
											{
												OFFSET 2.952896 0.000031 0.000063
												CHANNELS 6 Xposition Yposition Zposition Xrotation Yrotation Zrotation
												End Site
												{
													OFFSET 295.289337 0.000000 0.022810
												}
											}
										}
									}
								}
								JOINT mixamorig:LeftHandRing1
								{
									OFFSET 9.104523 -0.042999 -1.865074
									CHANNELS 6 Xposition Yposition Zposition Xrotation Yrotation Zrotation
									JOINT mixamorig:LeftHandRing2
									{
										OFFSET 3.150009 -0.000031 0.000043
										CHANNELS 6 Xposition Yposition Zposition Xrotation Yrotation Zrotation
										JOINT mixamorig:LeftHandRing3
										{
											OFFSET 2.949982 -0.000015 0.000040
											CHANNELS 6 Xposition Yposition Zposition Xrotation Yrotation Zrotation
											JOINT mixamorig:LeftHandRing4
											{
												OFFSET 2.644348 0.000000 0.000057
												CHANNELS 6 Xposition Yposition Zposition Xrotation Yrotation Zrotation
												End Site
												{
													OFFSET 264.434631 0.000000 0.012105
												}
											}
										}
									}
								}
								JOINT mixamorig:LeftHandPinky1
								{
									OFFSET 8.077789 -0.486847 -3.806259
									CHANNELS 6 Xposition Yposition Zposition Xrotation Yrotation Zrotation
									JOINT mixamorig:LeftHandPinky2
									{
										OFFSET 3.599953 0.000031 0.014727
										CHANNELS 6 Xposition Yposition Zposition Xrotation Yrotation Zrotation
										JOINT mixamorig:LeftHandPinky3
										{
											OFFSET 2.100021 0.000015 0.007705
											CHANNELS 6 Xposition Yposition Zposition Xrotation Yrotation Zrotation
											JOINT mixamorig:LeftHandPinky4
											{
												OFFSET 2.125504 0.000031 0.007517
												CHANNELS 6 Xposition Yposition Zposition Xrotation Yrotation Zrotation
												End Site
												{
													OFFSET 212.550781 0.000000 0.625752
												}
											}
										}
									}
								}
							}
						}
					}
				}
			}
		}
	}
	JOINT mixamorig:RightUpLeg
	{
		OFFSET -8.207787 -6.751648 -1.599560
		CHANNELS 6 Xposition Yposition Zposition Xrotation Yrotation Zrotation
		JOINT mixamorig:RightLeg
		{
			OFFSET -0.000002 -44.370117 0.345942
			CHANNELS 6 Xposition Yposition Zposition Xrotation Yrotation Zrotation
			JOINT mixamorig:RightFoot
			{
				OFFSET 0.000003 -44.423679 -3.043532
				CHANNELS 6 Xposition Yposition Zposition Xrotation Yrotation Zrotation
				JOINT mixamorig:RightToeBase
				{
					OFFSET -0.000002 -8.728671 10.710558
					CHANNELS 6 Xposition Yposition Zposition Xrotation Yrotation Zrotation
					JOINT mixamorig:RightToe_End
					{
						OFFSET -0.000001 -0.000679 9.278119
						CHANNELS 6 Xposition Yposition Zposition Xrotation Yrotation Zrotation
						End Site
						{
							OFFSET 0.000000 -0.067690 927.812134
						}
					}
				}
			}
		}
	}
	JOINT mixamorig:LeftUpLeg
	{
		OFFSET 8.207793 -6.751686 -1.599556
		CHANNELS 6 Xposition Yposition Zposition Xrotation Yrotation Zrotation
		JOINT mixamorig:LeftLeg
		{
			OFFSET -0.000004 -44.370014 0.346954
			CHANNELS 6 Xposition Yposition Zposition Xrotation Yrotation Zrotation
			JOINT mixamorig:LeftFoot
			{
				OFFSET -0.000001 -44.423672 -3.044401
				CHANNELS 6 Xposition Yposition Zposition Xrotation Yrotation Zrotation
				JOINT mixamorig:LeftToeBase
				{
					OFFSET -0.000002 -8.728669 10.710558
					CHANNELS 6 Xposition Yposition Zposition Xrotation Yrotation Zrotation
					JOINT mixamorig:LeftToe_End
					{
						OFFSET -0.000003 -0.000679 9.278133
						CHANNELS 6 Xposition Yposition Zposition Xrotation Yrotation Zrotation
						End Site
						{
							OFFSET 0.000000 -0.068021 927.813477
						}
					}
				}
			}
		}
	}
}
MOTION
Frames: 3
Frame Time: 0.033333
0.000006 104.270477 1.554256 0.000010 0.000003 -0.000113 -0.000005 10.181587 0.131522 0.000001 -0.000003 0.000084 -0.000000 9.893967 -1.470711 0.000001 0.000000 -0.000000 -0.000000 9.220802 -1.370642 0.000000 -0.000000 -0.000000 0.000001 16.740433 -2.049030 0.000000 -0.000000 -0.000000 0.000000 9.617859 1.685014 0.000000 0.000000 0.000000 0.000002 22.037384 7.501101 0.000000 -0.000000 0.000000 -4.569968 11.014880 -2.160881 0.000008 0.000001 -0.000038 -10.592815 -0.524845 -2.231777 73.044837 56.861765 -43.695565 -27.841482 -0.000001 0.000599 29.927621 103.784485 -37.635148 -28.328835 0.000007 0.000025 -0.000320 -0.000044 0.000006 -2.464796 -1.574168 2.682026 117.080535 -177.669039 162.922592 -3.215098 -1.873033 1.924507 99.234726 192.557936 -205.223511 -2.654804 -1.528265 1.512852 278.726032 -6.727801 -384.096426 -2.018822 -1.151985 1.108057 -0.000003 -0.000002 0.000000 -9.108196 -0.517733 2.260429 203.401695 16.240733 -290.838525 -3.699895 0.000170 0.001809 201.904135 14.789702 -292.316988 -2.849929 0.000200 0.000082 202.581703 12.143007 -303.908010 -2.772173 0.000005 -0.000027 -0.000005 0.000002 0.000001 -9.532415 0.000131 0.000569 198.367244 10.589364 -300.141134 -3.699927 0.000160 0.004303 198.553859 8.839227 -309.558872 -2.949912 0.000154 -0.001458 197.563399 10.482478 -298.606008 -2.946620 0.000001 -0.000152 0.000001 0.000002 0.000001 -9.103479 -0.042873 -1.864542 195.966856 10.337571 -294.416670 -3.379219 0.000164 -0.000468 -162.252346 6.047861 37.443145 -2.889680 0.000162 0.000963 -160.192019 6.354136 35.414056 -2.638807 0.000016 0.000939 -0.000003 0.000000 -0.000001 -8.076518 -0.486506 -3.805703 188.019986 7.973663 -270.342057 -3.599985 0.000078 -0.003183 -168.415212 0.863665 5.574980 -2.099975 0.000092 -0.005165 -165.023135 2.185708 15.217163 -2.115750 -0.000055 -0.003674 0.000001 -0.000000 -0.000001 4.570446 11.014691 -2.160851 -0.000018 0.000010 -0.000021 10.592501 -0.524528 -2.232388 60.438800 -57.707667 35.585805 27.841759 -0.000081 -0.000110 221.268104 -74.414604 232.759241 28.328831 -0.000029 0.000023 0.000023 -0.000089 0.000001 2.465981 -1.576183 2.681860 327.899951 -230.483914 -372.449560 3.217481 -1.871759 1.916488 -53.158775 -161.863749 70.831425 2.656122 -1.528615 1.514471 155.162541 -22.835028 50.316911 2.020880 -1.154051 1.115156 0.000000 -0.000000 0.000001 9.109426 -0.517799 2.259798 132.260603 -17.215015 37.740900 3.700097 0.000218 -0.000390 130.119120 -17.809769 37.277315 2.850136 0.000256 0.000291 132.101159 -16.340965 35.823335 2.774890 -0.000046 -0.000027 -0.000000 0.000000 -0.000001 9.533487 0.000287 -0.000042 126.161695 -13.580237 26.377817 3.700091 0.000268 -0.000319 122.664351 -13.423824 24.289126 2.950123 0.000238 -0.000145 128.013851 -15.789466 31.757555 2.952873 -0.000015 0.000065 -0.000001 0.000001 0.000000 9.104591 -0.042770 -1.865212 108.474687 -12.708731 17.581431 3.150001 0.000013 0.000036 -9.150775 15.901512 1.280375 2.949997 0.000060 0.000180 -56.544059 13.795953 7.444216 2.644317 0.000046 0.000055 0.000000 -0.000000 0.000000 8.077841 -0.486603 -3.806399 111.547904 -10.649246 16.414937 3.599925 -0.000012 0.014689 -14.106156 35.777132 4.389351 2.100022 0.000041 0.007851 -63.967139 19.100940 11.659312 2.125489 -0.000002 0.007513 -0.000002 -0.000002 -0.000000 -8.207786 -6.751667 -1.599560 -0.077001 -0.000003 0.000080 -0.000002 -44.370110 0.345938 0.153719 -0.000000 -0.000000 0.000000 -44.423679 -3.043532 -0.076700 0.000000 -0.000002 -0.000006 -8.728667 10.710559 -0.000009 -0.000000 -0.000000 -0.000001 -0.000679 9.278123 0.000000 -0.000000 -0.000000 8.207792 -6.751710 -1.599556 -0.074518 -0.000003 0.000081 -0.000002 -44.370014 0.346960 0.148822 0.000002 0.000000 -0.000001 -44.423664 -3.044403 -0.074314 0.000000 -0.000002 -0.000004 -8.728671 10.710558 0.000007 -0.000000 -0.000000 0.000000 -0.000680 9.278137 -0.000000 0.000000 -0.000001 
0.000006 104.270477 1.554256 0.000010 0.000003 -0.000113 -0.000005 10.181587 0.131522 0.000001 -0.000003 0.000084 -0.000000 9.893967 -1.470711 0.000001 0.000000 -0.000000 -0.000000 9.220802 -1.370642 0.000000 -0.000000 -0.000000 0.000001 16.740433 -2.049030 0.000000 -0.000000 -0.000000 0.000000 9.617859 1.685014 0.000000 0.000000 0.000000 0.000002 22.037384 7.501101 0.000000 -0.000000 0.000000 -4.569968 11.014880 -2.160881 0.000008 0.000001 -0.000038 -10.592817 -0.524838 -2.231772 73.088550 57.224725 -44.026962 -27.841492 -0.000002 0.000590 29.433601 101.895330 -35.878837 -28.328835 0.000007 0.000019 -0.000320 -0.000044 0.000007 -2.464823 -1.574175 2.682022 118.309969 -180.171921 163.518308 -3.215140 -1.873018 1.924474 103.200750 187.648861 -202.520928 -2.654848 -1.528212 1.512854 283.427005 0.885589 -380.501287 -2.018838 -1.151997 1.108068 -0.000005 -0.000003 0.000000 -9.108147 -0.517738 2.260440 198.436885 22.111091 -259.454189 -3.699843 0.000189 0.001820 197.864925 19.162960 -265.900958 -2.849906 0.000196 0.000072 198.756333 15.128615 -282.398351 -2.772187 -0.000001 -0.000016 -0.000006 -0.000006 -0.000003 -9.532390 0.000112 0.000577 198.864414 14.523547 -284.936340 -3.699931 0.000171 0.004301 201.357228 10.140761 -309.778367 -2.949915 0.000117 -0.001459 202.644637 12.623546 -302.174672 -2.946631 -0.000014 -0.000157 -0.000000 0.000000 -0.000000 -9.103445 -0.042874 -1.864541 195.510244 14.538732 -273.750376 -3.379207 0.000162 -0.000467 -162.179195 7.310217 44.384144 -2.889664 0.000134 0.000970 -157.954804 7.595678 37.757470 -2.638801 -0.000029 0.000948 0.000002 0.000003 0.000003 -8.076456 -0.486541 -3.805691 186.670941 11.587474 -239.363406 -3.599983 0.000124 -0.003172 -169.346863 2.931698 28.357180 -2.099939 0.000164 -0.005160 -164.983206 5.135907 36.674919 -2.115766 -0.000040 -0.003680 -0.000001 -0.000000 -0.000004 4.570446 11.014691 -2.160851 -0.000018 0.000010 -0.000021 10.592505 -0.524535 -2.232395 61.310394 -59.693845 37.565125 27.841766 -0.000060 -0.000116 223.294293 -75.306995 234.439495 28.328829 -0.000013 0.000036 0.000019 -0.000090 0.000001 2.466009 -1.576178 2.681885 332.500876 -225.269625 -381.356017 3.217487 -1.871755 1.916516 -51.222611 -159.445193 65.687193 2.656106 -1.528697 1.514524 153.936645 -19.949924 68.050486 2.020890 -1.154059 1.115141 0.000002 0.000001 0.000006 9.109433 -0.517797 2.259827 133.268616 -18.192033 40.639038 3.700113 0.000204 -0.000376 133.976619 -19.454564 44.001120 2.850109 0.000254 0.000313 138.290813 -17.073117 43.007160 2.774888 -0.000047 -0.000029 -0.000000 0.000000 -0.000000 9.533505 0.000315 -0.000010 128.989461 -15.495613 31.815455 3.700091 0.000244 -0.000293 132.695221 -14.854312 33.143735 2.950107 0.000268 -0.000110 137.868898 -14.438549 36.416240 2.952865 -0.000031 0.000064 -0.000000 -0.000000 0.000000 9.104599 -0.042789 -1.865184 106.278700 -14.138628 18.786577 3.150009 -0.000009 0.000028 -3.927722 14.481912 0.498986 2.949999 0.000022 0.000183 -56.380165 15.714390 8.459229 2.644319 0.000015 0.000060 0.000000 -0.000002 -0.000000 8.077851 -0.486608 -3.806378 111.990042 -10.290419 16.020632 3.599908 0.000012 0.014667 -1.827256 40.397424 0.511573 2.100023 0.000051 0.007854 -62.489189 22.208521 13.241060 2.125493 -0.000017 0.007519 -0.000001 0.000004 0.000001 -8.207786 -6.751667 -1.599560 -0.077001 -0.000003 0.000080 -0.000002 -44.370110 0.345938 0.153719 -0.000000 -0.000000 0.000000 -44.423679 -3.043532 -0.076700 0.000000 -0.000002 -0.000006 -8.728667 10.710559 -0.000009 -0.000000 -0.000000 -0.000001 -0.000679 9.278123 0.000000 -0.000000 -0.000000 8.207792 -6.751710 -1.599556 -0.074518 -0.000003 0.000081 -0.000002 -44.370014 0.346960 0.148822 0.000002 0.000000 -0.000001 -44.423664 -3.044403 -0.074314 0.000000 -0.000002 -0.000004 -8.728671 10.710558 0.000007 -0.000000 -0.000000 0.000000 -0.000680 9.278137 -0.000000 0.000000 -0.000001 
0.000006 104.270477 1.554256 0.000010 0.000003 -0.000113 -0.000005 10.181587 0.131522 0.000001 -0.000003 0.000084 -0.000000 9.893967 -1.470711 0.000001 0.000000 -0.000000 -0.000000 9.220802 -1.370642 0.000000 -0.000000 -0.000000 0.000001 16.740433 -2.049030 0.000000 -0.000000 -0.000000 0.000000 9.617859 1.685014 0.000000 0.000000 0.000000 0.000002 22.037384 7.501101 0.000000 -0.000000 0.000000 -4.569968 11.014880 -2.160881 0.000008 0.000001 -0.000038 -10.592810 -0.524843 -2.231779 73.406905 58.069353 -44.960666 -27.841492 -0.000004 0.000578 31.279309 102.780058 -38.637653 -28.328823 0.000021 0.000017 -0.000320 -0.000042 0.000005 -2.464774 -1.574175 2.682013 118.282101 -173.089725 162.794280 -3.215109 -1.873030 1.924473 103.040616 192.742624 -203.807804 -2.654821 -1.528234 1.512842 281.801912 -7.134106 -383.152849 -2.018822 -1.151985 1.108058 -0.000001 -0.000003 0.000000 -9.108196 -0.517723 2.260433 204.003667 15.902282 -293.353893 -3.699955 0.000126 0.001809 208.058149 13.101366 -310.664543 -2.849984 0.000128 0.000050 210.622858 10.357116 -323.369651 -2.772180 -0.000016 -0.000023 0.000001 -0.000003 0.000001 -9.532463 0.000088 0.000566 204.801433 10.887602 -312.899353 -3.699964 0.000090 0.004295 210.029902 7.876717 -331.411051 -2.949950 0.000060 -0.001474 212.789066 9.660814 -327.961368 -2.946639 -0.000000 -0.000156 -0.000000 0.000000 -0.000001 -9.103527 -0.042911 -1.864547 201.162486 10.840200 -306.217407 -3.379258 0.000077 -0.000481 -154.316745 4.928295 21.431848 -2.889704 0.000088 0.000950 -148.925199 5.279448 18.948073 -2.638821 -0.000003 0.000947 0.000000 -0.000004 -0.000001 -8.076574 -0.486516 -3.805698 194.567023 10.056970 -291.106078 -3.599996 0.000030 -0.003183 -160.539457 0.809527 2.943053 -2.099978 0.000036 -0.005165 -155.586846 1.580481 6.424789 -2.115776 -0.000019 -0.003676 -0.000002 -0.000002 -0.000003 4.570446 11.014691 -2.160851 -0.000018 0.000010 -0.000021 10.592501 -0.524527 -2.232395 61.713676 -58.555102 37.039136 27.841757 -0.000079 -0.000105 223.601720 -74.601908 235.402825 28.328831 -0.000012 0.000018 0.000019 -0.000089 0.000000 2.465972 -1.576171 2.681859 320.704347 -224.893513 -362.622502 3.217450 -1.871785 1.916483 -53.596692 -166.430687 58.668572 2.656123 -1.528664 1.514485 154.508113 -21.186784 60.406405 2.020895 -1.154075 1.115136 0.000001 0.000004 0.000001 9.109426 -0.517781 2.259787 129.179668 -17.570409 36.015270 3.700097 0.000200 -0.000411 125.275915 -19.568845 36.893369 2.850133 0.000224 0.000298 133.087602 -19.653933 43.520705 2.774887 -0.000016 -0.000024 -0.000002 0.000000 0.000000 9.533505 0.000297 -0.000040 127.519686 -13.142419 26.289547 3.700085 0.000266 -0.000330 121.146901 -13.034804 22.893635 2.950128 0.000225 -0.000123 128.869264 -16.212897 33.167983 2.952873 -0.000015 0.000066 0.000000 -0.000000 -0.000000 9.104602 -0.042769 -1.865230 108.855860 -11.863811 16.534739 3.149984 0.000047 -0.000037 13.867266 17.175095 -2.104243 2.949995 0.000044 0.000183 -54.989703 15.583956 8.146320 2.644315 0.000016 0.000060 -0.000000 -0.000000 0.000001 8.077847 -0.486602 -3.806423 113.545980 -9.446767 15.211417 3.599866 0.000043 0.014590 28.546243 43.756319 -11.754505 2.100018 0.000038 0.007853 -65.440015 23.253266 14.700700 2.125518 -0.000035 0.007515 -0.000001 -0.000001 0.000000 -8.207786 -6.751667 -1.599560 -0.077001 -0.000003 0.000080 -0.000002 -44.370110 0.345938 0.153719 -0.000000 -0.000000 0.000000 -44.423679 -3.043532 -0.076700 0.000000 -0.000002 -0.000006 -8.728667 10.710559 -0.000009 -0.000000 -0.000000 -0.000001 -0.000679 9.278123 0.000000 -0.000000 -0.000000 8.207792 -6.751710 -1.599556 -0.074518 -0.000003 0.000081 -0.000002 -44.370014 0.346960 0.148822 0.000002 0.000000 -0.000001 -44.423664 -3.044403 -0.074314 0.000000 -0.000002 -0.000004 -8.728671 10.710558 0.000007 -0.000000 -0.000000 0.000000 -0.000680 9.278137 -0.000000 0.000000 -0.000001 
